<svg width="32" height="24" viewBox="0 0 32 24" fill="none" xmlns="http://www.w3.org/2000/svg">
<g clip-path="url(#clip0_1660_639)">
<rect width="32" height="24" fill="white"/>
<path fill-rule="evenodd" clip-rule="evenodd" d="M0 0V24H32V0H0Z" fill="#F7FCFF"/>
<mask id="mask0_1660_639" style="mask-type:luminance" maskUnits="userSpaceOnUse" x="0" y="0" width="32" height="24">
<path fill-rule="evenodd" clip-rule="evenodd" d="M0 0V24H32V0H0Z" fill="white"/>
</mask>
<g mask="url(#mask0_1660_639)">
<path fill-rule="evenodd" clip-rule="evenodd" d="M16 18.2195C19.2027 18.2195 21.799 15.4622 21.799 12.061C21.799 8.65971 19.2027 5.90244 16 5.90244C12.7972 5.90244 10.2009 8.65971 10.2009 12.061C10.2009 15.4622 12.7972 18.2195 16 18.2195Z" fill="#3D58DB"/>
<mask id="mask1_1660_639" style="mask-type:luminance" maskUnits="userSpaceOnUse" x="10" y="5" width="12" height="14">
<path fill-rule="evenodd" clip-rule="evenodd" d="M16 18.2195C19.2027 18.2195 21.799 15.4622 21.799 12.061C21.799 8.65971 19.2027 5.90244 16 5.90244C12.7972 5.90244 10.2009 8.65971 10.2009 12.061C10.2009 15.4622 12.7972 18.2195 16 18.2195Z" fill="white"/>
</mask>
<g mask="url(#mask1_1660_639)">
<path fill-rule="evenodd" clip-rule="evenodd" d="M22.0019 12.5327C22.0019 12.5327 21.6764 9.62878 19.2657 9.47114C16.8551 9.31349 16.2051 11.6007 16.066 12.2067C15.9269 12.8127 15.5748 14.4292 13.0366 14.4292C10.4985 14.4292 10.2695 10.3187 10.2695 10.3187V5.4719H22.0019V12.5327Z" fill="#E31D1C"/>
</g>
<path fill-rule="evenodd" clip-rule="evenodd" d="M7.29934 2.05217L8.2143 2.8797L3.97404 7.8316L3.05908 7.00407L7.29934 2.05217ZM8.80833 3.39133L9.72329 4.21885L5.63503 9.09902L4.72007 8.27149L8.80833 3.39133ZM11.2254 5.57451L10.3104 4.74698L6.21078 9.66419L7.12575 10.4917L11.2254 5.57451Z" fill="#272727"/>
<path fill-rule="evenodd" clip-rule="evenodd" d="M25.3637 1.70518L24.4485 2.52961L26.0359 4.39245L26.9511 3.56802L25.3637 1.70518ZM28.1853 5.13182L27.2701 5.95625L28.8576 7.81909L29.7727 6.99466L28.1853 5.13182ZM21.4279 5.2128L22.3431 4.38837L23.9305 6.25121L23.0153 7.07564L21.4279 5.2128ZM25.1647 7.81501L24.2495 8.63944L25.837 10.5023L26.7521 9.67785L25.1647 7.81501ZM22.9955 3.8312L23.9107 3.00677L28.3293 8.38763L27.4141 9.21206L22.9955 3.8312Z" fill="#272727"/>
<path fill-rule="evenodd" clip-rule="evenodd" d="M26.0548 14.2431L25.1319 13.4155L23.5311 15.2856L24.454 16.1132L26.0548 14.2431ZM23.3635 17.5341L22.4406 16.7065L20.8398 18.5766L21.7627 19.4042L23.3635 17.5341ZM28.0464 16.0328L28.9692 16.8605L27.3684 18.7306L26.4456 17.9029L28.0464 16.0328ZM26.4095 20.2278L25.4867 19.4001L23.8859 21.2702L24.8087 22.0979L26.4095 20.2278ZM23.9664 17.978L24.8893 18.8057L23.2183 20.8026L22.2955 19.975L23.9664 17.978ZM27.6307 15.4782L26.7078 14.6506L25.0369 16.6475L25.9598 17.4752L27.6307 15.4782Z" fill="#272727"/>
<path fill-rule="evenodd" clip-rule="evenodd" d="M6.40645 14.8899L7.32165 14.0645L11.4062 18.745L10.491 19.5703L6.40645 14.8899ZM7.35925 18.9835L8.27445 18.1582L9.99976 20.0538L9.08455 20.8791L7.35925 18.9835ZM4.30931 16.6908L3.39411 17.5161L7.49991 22.2595L8.41511 21.4342L4.30931 16.6908ZM4.96049 16.1522L5.8757 15.3269L7.37137 17.0807L6.45616 17.9061L4.96049 16.1522Z" fill="#272727"/>
</g>
</g>
<defs>
<clipPath id="clip0_1660_639">
<rect width="32" height="24" fill="white"/>
</clipPath>
</defs>
</svg>
